<?xml version="1.0" encoding="utf-8"?>
<!-- Generator: Adobe Illustrator 19.2.1, SVG Export Plug-In . SVG Version: 6.00 Build 0)  -->
<svg version="1.1" id="Layer_1" xmlns="http://www.w3.org/2000/svg" xmlns:xlink="http://www.w3.org/1999/xlink" x="0px" y="0px"
	 viewBox="0 0 992 391.1" style="enable-background:new 0 0 992 391.1;" xml:space="preserve">
<style type="text/css">
	.st0{fill:none;stroke:#D5DEE3;stroke-miterlimit:10;}
	.st1{fill:#D5DEE3;stroke:#D5DEE3;stroke-miterlimit:10;}
	.st2{fill:#E65F25;stroke:#D5DEE3;stroke-miterlimit:10;}
	.st3{fill:none;stroke:#D5DEE3;stroke-miterlimit:10;stroke-dasharray:1,2;}
	.st4{fill:#2D3942;}
	.st5{font-family:'MyriadPro-Regular';}
	.st6{font-size:15.6647px;}
</style>
<g>
	<line class="st0" x1="26" y1="6.2" x2="26" y2="361.6"/>
	<line class="st0" x1="986.2" y1="361.6" x2="0" y2="361.6"/>
	<rect x="67.8" y="62.3" class="st1" width="26.1" height="299.3"/>
	<rect x="147.4" y="177.2" class="st1" width="26.1" height="184.4"/>
	<rect x="227" y="124.6" class="st1" width="26.1" height="237"/>
	<rect x="306.6" y="259.5" class="st1" width="26.1" height="102.1"/>
	<rect x="386.2" y="177.2" class="st1" width="26.1" height="184.4"/>
	<rect x="465.8" y="16.6" class="st1" width="26.1" height="345"/>
	<rect x="545.4" y="150.5" class="st1" width="26.1" height="211.1"/>
	<rect x="625" y="183.9" class="st1" width="26.1" height="177.7"/>
	<rect x="704.7" y="139" class="st2" width="26.1" height="222.6"/>
	<rect x="784.3" y="269.4" class="st1" width="26.1" height="92.2"/>
	<rect x="863.9" y="94.8" class="st1" width="26.1" height="266.8"/>
	<rect x="943.5" y="221.2" class="st1" width="26.1" height="140.3"/>
	<line class="st3" x1="26" y1="6.2" x2="992" y2="6.2"/>
	<line class="st3" x1="26" y1="94.8" x2="992" y2="94.8"/>
	<line class="st3" x1="26" y1="182.1" x2="992" y2="182.1"/>
	<line class="st3" x1="26" y1="269.4" x2="992" y2="269.4"/>
	<text transform="matrix(1 0 0 1 0 13.1113)" class="st4 st5 st6">40</text>
	<text transform="matrix(1 0 0 1 0 101.8779)" class="st4 st5 st6">30</text>
	<text transform="matrix(1 0 0 1 0 189.0879)" class="st4 st5 st6">20</text>
	<text transform="matrix(1 0 0 1 0 272.748)" class="st4 st5 st6">10</text>
	<text transform="matrix(1 0 0 1 7.1797 348.4609)" class="st4 st5 st6">0</text>
	<text transform="matrix(1 0 0 1 69.7954 387.1875)" class="st4 st5 st6">Jan</text>
	<text transform="matrix(1 0 0 1 149.4072 387.1875)" class="st4 st5 st6">Feb</text>
	<text transform="matrix(1 0 0 1 226.9844 387.1875)" class="st4 st5 st6">Mar</text>
	<text transform="matrix(1 0 0 1 306.5957 387.1875)" class="st4 st5 st6">Apr</text>
	<text transform="matrix(1 0 0 1 385.5156 387.1875)" class="st4 st5 st6">May</text>
	<text transform="matrix(1 0 0 1 467.3125 387.1875)" class="st4 st5 st6">Jun</text>
	<text transform="matrix(1 0 0 1 549.4229 387.1875)" class="st4 st5 st6">Jul</text>
	<text transform="matrix(1 0 0 1 624.7026 387.1875)" class="st4 st5 st6">Aug</text>
	<text transform="matrix(1 0 0 1 705.4189 387.1875)" class="st4 st5 st6">Sep</text>
	<text transform="matrix(1 0 0 1 785.6885 387.1875)" class="st4 st5 st6">Oct</text>
	<text transform="matrix(1 0 0 1 863.7642 387.1875)" class="st4 st5 st6">Nov</text>
	<text transform="matrix(1 0 0 1 943.3765 387.1875)" class="st4 st5 st6">Dec</text>
</g>
</svg>
